<svg width="36" height="36" viewBox="0 0 36 36" fill="none" xmlns="http://www.w3.org/2000/svg">
<path d="M3.95967 27.5396L0.315068 23.895C-0.105023 23.4749 -0.105023 22.7938 0.315068 22.3737L22.3737 0.315068C22.7938 -0.105023 23.4749 -0.105023 23.895 0.315068L27.5776 3.9977C27.4332 4.10063 27.2953 4.21689 27.1657 4.34647C25.9055 5.60674 25.9055 7.65005 27.1657 8.91033C28.426 10.1706 30.4693 10.1706 31.7296 8.91033C31.8592 8.78074 31.9754 8.64289 32.0784 8.49845L35.6849 12.105C36.105 12.5251 36.105 13.2062 35.6849 13.6263L13.6263 35.6849C13.2062 36.105 12.5251 36.105 12.105 35.6849L8.46042 32.0403C8.60486 31.9374 8.74271 31.8211 8.87229 31.6916C10.1326 30.4313 10.1326 28.388 8.87229 27.1277C7.61202 25.8674 5.56871 25.8674 4.30844 27.1277C4.17886 27.2573 4.0626 27.3951 3.95967 27.5396ZM16.6689 9.8231L18.1902 11.3444L19.3311 10.2034L17.8098 8.68213L16.6689 9.8231ZM19.3311 12.4853L20.8524 14.0066L21.9934 12.8657L20.4721 11.3444L19.3311 12.4853ZM21.9934 15.1476L23.5147 16.6689L24.6556 15.5279L23.1343 14.0066L21.9934 15.1476ZM24.6556 17.8098L26.1769 19.3311L27.3179 18.1902L25.7966 16.6689L24.6556 17.8098Z" fill="#EEEEEE" fill-opacity="0.5"/>
</svg>
