<svg width="40" height="40" viewBox="0 0 40 40" fill="none" xmlns="http://www.w3.org/2000/svg">
<path d="M22.8166 27.2308L17.3154 32.7324C14.5478 35.5 10.0526 35.5128 7.26856 32.7712L7.26816 32.7716C7.26176 32.7652 7.25536 32.7584 7.24896 32.7516C7.24256 32.7452 7.23576 32.7388 7.22896 32.7324L7.22936 32.732C4.48776 29.948 4.50016 25.4528 7.26816 22.6852L13.3306 16.6228C16.0982 13.8552 20.5934 13.8424 23.3774 16.584L23.3778 16.5836C23.3842 16.59 23.3906 16.5968 23.397 16.6032C23.4034 16.6096 23.4102 16.616 23.417 16.6228L23.4166 16.6232C23.7494 16.9612 24.0418 17.324 24.2934 17.706L22.6462 19.3532C22.1766 19.8228 21.4614 19.8984 20.911 19.5832C20.8386 19.492 20.761 19.404 20.6774 19.3192C19.3934 18.0584 17.3234 18.0648 16.0482 19.34L9.98536 25.4024C8.70936 26.6784 8.70336 28.7496 9.96616 30.0336C11.2502 31.2964 13.3218 31.2904 14.5974 30.0144L18.0434 26.5684C19.5542 27.2236 21.209 27.444 22.8166 27.2308ZM32.7326 7.22841L32.7322 7.22881C29.9482 4.48721 25.453 4.49961 22.6854 7.26761L17.1838 12.7692C18.7918 12.556 20.4466 12.7764 21.957 13.4312L25.403 9.98521C26.679 8.70921 28.7502 8.70321 30.0342 9.96601C31.297 11.25 31.291 13.3216 30.015 14.5972L23.9526 20.66C22.6774 21.9352 20.6074 21.9416 19.3234 20.6808C19.2402 20.596 19.1622 20.508 19.0898 20.4168C18.5394 20.1016 17.8242 20.1772 17.3546 20.6468L15.7074 22.294C15.959 22.676 16.2514 23.0392 16.5842 23.3768L16.5838 23.3772C16.5902 23.3836 16.597 23.39 16.6038 23.3968C16.6102 23.4032 16.6166 23.41 16.623 23.4164L16.6234 23.416C19.4074 26.1576 23.9026 26.1452 26.6702 23.3772L32.7326 17.3148C35.5002 14.5472 35.513 10.052 32.7714 7.26801L32.7718 7.26761C32.7654 7.26121 32.7586 7.25481 32.7518 7.24841C32.7454 7.24161 32.739 7.23521 32.7326 7.22841Z" fill="white"/>
</svg>
