<svg width="30" height="30" viewBox="0 0 30 30" fill="none" xmlns="http://www.w3.org/2000/svg">
<path d="M17.1122 20.4231L12.9863 24.5493C10.9106 26.625 7.53918 26.6346 5.45118 24.5784L5.45088 24.5787C5.44608 24.5739 5.44128 24.5688 5.43648 24.5637C5.43168 24.5589 5.42658 24.5541 5.42148 24.5493L5.42178 24.549C3.36558 22.461 3.37488 19.0896 5.45088 17.0139L9.99768 12.4671C12.0734 10.3914 15.4448 10.3818 17.5328 12.438L17.5331 12.4377C17.5379 12.4425 17.5427 12.4476 17.5475 12.4524C17.5523 12.4572 17.5574 12.462 17.5625 12.4671L17.5622 12.4674C17.8118 12.7209 18.0311 12.993 18.2198 13.2795L16.9844 14.5149C16.6322 14.8671 16.0958 14.9238 15.683 14.6874C15.6287 14.619 15.5705 14.553 15.5078 14.4894C14.5448 13.5438 12.9923 13.5486 12.0359 14.505L7.48878 19.0518C6.53178 20.0088 6.52728 21.5622 7.47438 22.5252C8.43738 23.4723 9.99108 23.4678 10.9478 22.5108L13.5323 19.9263C14.6654 20.4177 15.9065 20.583 17.1122 20.4231ZM24.5492 5.42129L24.5489 5.42159C22.4609 3.36539 19.0895 3.37469 17.0138 5.45069L12.8876 9.57689C14.0936 9.41699 15.3347 9.58229 16.4675 10.0734L19.052 7.48889C20.009 6.53189 21.5624 6.52739 22.5254 7.47449C23.4725 8.43749 23.468 9.99119 22.511 10.9479L17.9642 15.495C17.0078 16.4514 15.4553 16.4562 14.4923 15.5106C14.4299 15.447 14.3714 15.381 14.3171 15.3126C13.9043 15.0762 13.3679 15.1329 13.0157 15.4851L11.7803 16.7205C11.969 17.007 12.1883 17.2794 12.4379 17.5326L12.4376 17.5329C12.4424 17.5377 12.4475 17.5425 12.4526 17.5476C12.4574 17.5524 12.4622 17.5575 12.467 17.5623L12.4673 17.562C14.5553 19.6182 17.9267 19.6089 20.0024 17.5329L24.5492 12.9861C26.6249 10.9104 26.6345 7.53899 24.5783 5.45099L24.5786 5.45069C24.5738 5.44589 24.5687 5.44109 24.5636 5.43629C24.5588 5.43119 24.554 5.42639 24.5492 5.42129Z" fill="#EEEEEE" fill-opacity="0.5"/>
</svg>
